<svg version="1" xmlns="http://www.w3.org/2000/svg" width="1365.333" height="1365.333" viewBox="0 0 1024.000000 1024.000000"><path d="M484.9 236.4c-.2.2-6.7.7-14.4 1-7.7.4-15.6.8-17.5 1-13 1.2-17.9 1.7-21 2.1-1.9.2-6 .7-9 1-3 .4-6.6.8-8 1-6.3 1-27.7 4.5-29.6 4.9-1.2.2-3.9.7-6 1-2.2.4-4.6.8-5.4 1.1-.8.2-2.6.6-4 .9-9.5 1.8-33.1 7.6-45 11.1-3 .9-6.4 1.8-7.4 2-8.1 1.8-47.5 16.2-59.4 21.6-3.5 1.6-6.6 2.9-6.9 2.9-1.2 0-36.3 17.7-41 20.7-2.9 1.8-5.5 3.3-5.8 3.3-.3 0-1.8.9-3.3 1.9-1.5 1-7.2 4.7-12.7 8.2-5.5 3.5-10.2 6.6-10.5 6.9-.3.4-2.7 2.1-5.5 4-2.7 1.9-5.9 4.2-7 5.1-1.1 1-5.6 4.6-10 8.1-10 7.8-34.2 31.8-42.1 41.8-13.6 17-21.9 30.1-30 47.5-4.5 9.7-11.7 29.9-12.7 36-.3 1.6-1 5.5-1.6 8.5-2.1 10.4-2.6 15.5-2.6 30.5 0 17.1.7 24.3 3.4 37 6.8 31.2 20.3 58.8 42.5 86.5 8.6 10.7 24 27 32 33.7 2.9 2.5 2.9 2.5 1.3 5.6-.9 1.8-5.8 10.8-10.8 20.2-5 9.3-11.3 21.3-14.1 26.5-2.8 5.2-6.3 11.7-7.8 14.5-1.5 2.7-4.9 9-7.5 14-2.6 4.9-6.1 11.4-7.7 14.4-1.6 3-2.7 5.7-2.6 6.1.2.4 10.4-2.4 22.8-6.2 12.4-3.7 23.4-7 24.5-7.3 1.1-.2 8.1-2.3 15.5-4.6 7.4-2.2 18.7-5.6 25-7.5 6.3-1.8 17.6-5.2 25-7.4 7.4-2.3 14-4.2 14.5-4.4.6-.1 3.7-1 6.9-2l5.9-1.8 7.6 3.6c13.4 6.2 18.4 8.3 28.6 12.4 9.9 3.9 35.6 13.1 38.5 13.7.8.2 6.9 1.9 13.5 3.9 11.3 3.3 32.9 8.9 38.5 10 1.4.2 5.9 1.1 10 2 7.9 1.6 33.7 6.1 40.5 7 10.6 1.4 20.6 2.6 26.5 3.2 3.6.3 7.9.7 9.5.9 1.7.2 8.2.6 14.5 1 6.3.4 13.8.8 16.5 1.1 6.3.4 57.4.4 67.5-.1 4.1-.2 10.7-.6 14.5-.9 15.7-1.3 20.2-1.7 24-2.1 11.9-1.4 14.7-1.7 22-2.6 4.4-.5 11.6-1.6 16-2.4 4.4-.8 9.6-1.6 11.5-1.9 11.1-1.8 38.8-7.9 52.5-11.6 6.1-1.7 12.1-3.3 13.5-3.6 9.1-1.9 50.7-16.9 68.5-24.7 12.7-5.5 44.9-22.1 52.3-26.9 1.5-1 3.4-2.1 4.2-2.5 6.5-3.1 38.4-26.1 47.4-34.2 48-43 71.9-81 81.7-130 3.3-16.3 3.4-42.3.4-60.1-5.8-33.5-22.7-68.7-46.5-97-30-35.5-69.5-65.2-119.6-90-8.9-4.4-16.3-8-16.6-8-.3 0-3.2-1.2-6.4-2.7-3.3-1.5-6.1-2.8-6.4-2.9-.8-.1-4.3-1.5-6.5-2.5-24.7-10.9-86.8-28.4-114.5-32.4-2.5-.3-6.1-1-8-1.5-1.9-.5-5.7-1.1-8.5-1.5-6.5-.8-10.5-1.3-18.5-2.5-3.6-.5-9.2-1.2-12.5-1.5-3.3-.4-7.3-.8-9-1-1.6-.2-6.6-.7-11-1-4.4-.4-9.8-.8-12-1-5.1-.6-74.2-1.5-74.6-1.1zM1022.6 961.6c-.9 2.4-.7 5.4.4 5.4.6 0 1-1.6 1-3.5 0-3.8-.4-4.4-1.4-1.9z"/></svg>